<svg width="26" height="25" viewBox="0 0 26 25" fill="none" xmlns="http://www.w3.org/2000/svg">
<g clip-path="url(#clip0)">
<path d="M18.2727 7.47782C18.0889 7.36641 17.8482 7.42668 17.7375 7.61168L12.4111 16.4889L9.00949 11.9532C8.8802 11.7808 8.63527 11.7457 8.46286 11.875C8.29043 12.0043 8.25535 12.2492 8.38465 12.4216L12.1345 17.4216C12.2085 17.52 12.3245 17.5776 12.447 17.5776C12.4534 17.5776 12.4603 17.5776 12.4672 17.5772C12.5968 17.5704 12.7147 17.4998 12.7815 17.388L18.4066 8.01301C18.5177 7.82836 18.4577 7.58844 18.2727 7.47782Z" fill="#008571"/>
<path d="M12.6035 0C5.69996 0 0.103516 5.59644 0.103516 12.5C0.103516 19.4036 5.69996 25 12.6035 25C19.5071 25 25.1035 19.4036 25.1035 12.5C25.1035 5.59645 19.5071 0 12.6035 0ZM12.6035 24.2188C6.1418 24.2188 0.884766 18.9618 0.884766 12.5C0.884766 6.03828 6.1418 0.78125 12.6035 0.78125C19.0653 0.78125 24.3223 6.03828 24.3223 12.5C24.3223 18.9618 19.0653 24.2188 12.6035 24.2188Z" fill="#008571"/>
</g>
<defs>
<clipPath id="clip0">
<rect width="25" height="25" fill="white" transform="translate(0.103516)"/>
</clipPath>
</defs>
</svg>
