<svg width="36" height="36" viewBox="0 0 36 36" fill="none" xmlns="http://www.w3.org/2000/svg">
<path d="M0 1.83551V34.1645H36V1.83551H0ZM34.875 2.96051V19.3954L26.5232 11.5507C26.4111 11.4453 26.2655 11.3882 26.1057 11.3991C25.9519 11.4079 25.8085 11.4793 25.7086 11.5974L15.99 23.0864L8.66874 17.084C8.44464 16.9 8.11395 16.917 7.90959 17.1263L1.125 24.0787V2.96051H34.875ZM1.125 33.0395V25.6895L8.35453 18.281L15.7055 24.3075C15.9433 24.5031 16.2933 24.4707 16.4915 24.2356L26.1848 12.7762L34.875 20.9383V33.0395H1.125Z" fill="black"/>
<path d="M14.625 14.773C16.7959 14.773 18.5625 13.0064 18.5625 10.8355C18.5625 8.66465 16.7959 6.89801 14.625 6.89801C12.4541 6.89801 10.6875 8.66465 10.6875 10.8355C10.6875 13.0064 12.4541 14.773 14.625 14.773ZM14.625 8.02301C16.1757 8.02301 17.4375 9.28481 17.4375 10.8355C17.4375 12.3863 16.1757 13.648 14.625 13.648C13.0742 13.648 11.8125 12.3863 11.8125 10.8355C11.8125 9.28481 13.0742 8.02301 14.625 8.02301Z" fill="black"/>
</svg>
