<svg width="36" height="36" viewBox="0 0 36 36" fill="none" xmlns="http://www.w3.org/2000/svg">
<g clip-path="url(#clip0)">
<g clip-path="url(#clip1)">
<path d="M31.5938 5.9183C31.3367 4.95755 30.7209 4.15497 29.8601 3.6584L24.3884 0.499283C23.5276 0.00214588 22.524 -0.129648 21.5643 0.127415C20.6041 0.38504 19.8011 1.00081 19.3039 1.86216L12.3539 13.8999C11.8568 14.7606 11.7245 15.7637 11.9821 16.7239C12.2397 17.6841 12.8555 18.4867 13.7168 18.9838L17.9751 21.4431C18.0635 21.4941 18.1602 21.5183 18.2558 21.5183C18.4503 21.5183 18.6393 21.4178 18.7436 21.2371C18.8991 20.9679 18.8068 20.6241 18.5376 20.4686L14.2793 18.0093C13.6784 17.6627 13.2483 17.1024 13.0686 16.4328C12.889 15.7632 12.9813 15.0633 13.3284 14.4624L20.2784 2.42466C20.6256 1.82369 21.1853 1.3936 21.8555 1.21394C22.5246 1.0349 23.2255 1.12664 23.8259 1.47376L29.2976 4.63293C29.898 4.97954 30.3276 5.53928 30.5072 6.20945C30.6868 6.87961 30.5946 7.57942 30.2474 8.18039L26.6669 14.3816C26.5115 14.6508 26.6038 14.9946 26.8729 15.1501C27.1404 15.305 27.4854 15.2133 27.6415 14.9441L31.2219 8.74289C31.719 7.8821 31.8514 6.87905 31.5938 5.9183Z" fill="black"/>
<path d="M22.279 17.0162L17.2902 14.1361C17.0209 13.9807 16.6771 14.073 16.5217 14.3421C16.3662 14.6113 16.4584 14.9551 16.7277 15.1106L21.7165 17.9907C22.9563 18.707 23.3826 20.2984 22.6663 21.5382L15.7163 33.5759C15.3697 34.1768 14.81 34.6064 14.1398 34.786C13.4707 34.9651 12.7709 34.8739 12.1699 34.5268L6.69822 31.3677C5.45842 30.6513 5.03159 29.0599 5.74737 27.8201L9.3278 21.6189C9.48327 21.3498 9.39097 21.0059 9.12181 20.8504C8.85316 20.6949 8.50874 20.7867 8.35332 21.0564L4.77284 27.2576C3.74729 29.0347 4.35867 31.3155 6.13572 32.3421L11.6074 35.5012C12.181 35.8319 12.817 36.0011 13.4614 36.0011C13.7849 36.0011 14.1107 35.9588 14.4315 35.8726C15.3917 35.6155 16.1942 34.9992 16.6908 34.1384L23.6408 22.1007C24.6669 20.3242 24.0561 18.0434 22.279 17.0162Z" fill="black"/>
</g>
</g>
<defs>
<clipPath id="clip0">
<rect width="36" height="36" fill="white"/>
</clipPath>
<clipPath id="clip1">
<rect width="36" height="36" fill="white"/>
</clipPath>
</defs>
</svg>
