<svg width="35" height="35" viewBox="0 0 35 35" fill="none" xmlns="http://www.w3.org/2000/svg">
<g clip-path="url(#clip0)">
<path d="M11.183 6.64659C9.309 5.6813 7.52313 5.86286 6.28358 7.14435C4.96709 8.50591 4.52915 10.8635 5.32704 12.2924C5.42531 12.4679 5.60742 12.5669 5.79544 12.5669C5.88354 12.5669 5.97328 12.545 6.05603 12.4988C6.31399 12.3546 6.4069 12.0283 6.26274 11.7701C5.75054 10.8536 5.98023 8.99914 7.05369 7.88881C7.96746 6.94327 9.22566 6.84368 10.6928 7.59886C10.9566 7.73503 11.2791 7.63009 11.4143 7.36786C11.5494 7.10481 11.4458 6.78199 11.183 6.64659Z" fill="#FF5555"/>
<path d="M32.2366 2.85333C30.7103 1.39881 28.5521 0.546883 26.2854 0.546883C23.0802 0.546883 19.6581 2.25073 17.5005 6.3635C13.8147 -0.660288 6.44623 -0.656242 2.76347 2.85333C-0.921156 6.3635 -0.921156 13.3862 2.76347 20.4088C5.34242 25.6753 11.9737 30.943 17.5005 34.4531C23.0263 30.943 29.6576 25.6753 32.2366 20.4088C35.9212 13.3862 35.9212 6.3635 32.2366 2.85333ZM31.2665 19.8999C31.2618 19.9088 31.2572 19.9179 31.2527 19.927C28.5274 25.4923 21.1308 30.7909 17.5005 33.151C13.8701 30.7913 6.47303 25.4932 3.7473 19.927C3.74287 19.9179 3.73822 19.9088 3.73352 19.8999C0.290007 13.3366 0.20382 6.80488 3.51919 3.64641C4.85543 2.37301 6.7492 1.64255 8.71494 1.64238H8.71544C11.9379 1.64255 14.7864 3.54884 16.5305 6.87253C16.7197 7.23314 17.0934 7.45905 17.5007 7.459C17.9079 7.459 18.2815 7.23309 18.4707 6.87242C20.2144 3.54868 23.0627 1.64238 26.2854 1.64238C28.2507 1.64238 30.1444 2.37284 31.481 3.64652C34.7962 6.80488 34.71 13.3366 31.2665 19.8999Z" fill="#FF5555"/>
</g>
<defs>
<clipPath id="clip0">
<rect width="35" height="35" fill="white"/>
</clipPath>
</defs>
</svg>
