<svg width="120" height="41" viewBox="0 0 120 41" fill="none" xmlns="http://www.w3.org/2000/svg">
<path d="M119.999 40.5755H108.789V15.6875H119.752V18.4724H111.891V25.8754H118.765V28.6955H111.891V37.7906H119.999V40.5755Z" fill="#101010"/>
<path d="M22.6428 40.3946H19.1846L29.3849 6.8293C29.9661 4.93066 30.2568 3.82634 30.2568 3.51636C30.2568 3.07076 30.1211 2.75109 29.8499 2.55735C29.598 2.36362 28.9587 2.26675 27.9319 2.26675H27.0019L27.3507 1.04619C30.4311 0.968695 32.7172 0.619965 34.209 0L34.9355 0L28.3387 21.6794C31.826 17.4559 35.0034 15.3441 37.8707 15.3441C39.1687 15.3441 40.1374 15.6154 40.7768 16.1578C41.4161 16.7003 41.7358 17.5237 41.7358 18.628C41.7358 19.4998 41.1643 21.5728 40.0212 24.847L37.4638 32.1413C36.4758 34.9893 35.9817 36.636 35.9817 37.0816C35.9817 37.566 36.0786 37.9341 36.2723 38.186C36.4661 38.4378 36.7567 38.5637 37.1442 38.5637C37.8416 38.5637 38.6263 38.1472 39.4981 37.3141C40.3699 36.481 41.1158 35.4445 41.7358 34.2046H43.1598C42.1717 36.1808 40.9996 37.7694 39.6434 38.9706C38.2872 40.1718 36.9989 40.7724 35.7783 40.7724C34.8871 40.7724 34.1218 40.443 33.4825 39.7843C32.8432 39.1256 32.5235 38.2538 32.5235 37.1688C32.5235 36.0064 33.066 33.9431 34.1509 30.9789L36.6211 24.2658C37.7641 21.1854 38.3357 19.248 38.3357 18.4536C38.3357 17.9693 38.2001 17.6109 37.9288 17.3784C37.677 17.1265 37.2798 17.0006 36.7373 17.0006C35.8655 17.0006 34.8387 17.359 33.6569 18.0758C32.4751 18.7733 31.2448 19.9551 29.9661 21.6213C28.6875 23.268 27.7478 24.818 27.1472 26.271C26.566 27.724 25.8008 30.0392 24.8514 33.2165L22.6428 40.3946Z" fill="#101010"/>
<path d="M105.963 14.0094C106.347 14.0094 106.548 13.8892 106.788 13.6969L106.115 15.115L105.442 16.5331H105.955L107.181 13.9132C107.421 13.3844 107.517 13.0479 107.517 12.6874C107.517 11.8462 106.964 11.3174 106.123 11.3174C105.306 11.3174 104.753 11.8462 104.753 12.6874C104.753 13.4806 105.146 14.0094 105.963 14.0094Z" fill="#101010"/>
<path d="M61.4574 40.33H65.0998L56.3866 15.333H51.2444L42.6025 40.33H46.0307L48.6085 32.5742C48.6799 32.2885 48.8942 32.1457 49.1799 32.1457H58.3082C58.5939 32.1457 58.7367 32.2885 58.8439 32.5385L61.4574 40.33ZM49.2089 31.1168L53.7441 18.0827L58.2792 31.1525C58.3863 31.4025 58.2435 31.581 57.9578 31.581H49.4946C49.2446 31.581 49.1018 31.4025 49.2089 31.1168Z" fill="#101010"/>
<path d="M87.956 40.3951H100.508V39.8159H97.7107C95.903 39.8159 95.7325 39.9176 95.7325 38.2804V16.4857H97.9154C101.497 16.4857 102.69 17.1337 102.963 20.408L103.066 21.8064L103.748 21.7723L103.202 13.8935L102.793 13.9276L102.963 15.8717H85.5002L85.6708 13.8935L85.2615 13.8594L84.6816 21.7723L85.3638 21.8064L85.5002 20.408C85.6708 17.1337 86.9327 16.4857 90.5481 16.4857H92.7992V38.2804C92.7992 39.9176 92.6287 39.8159 90.821 39.8159H87.956V40.3951Z" fill="#101010"/>
<path d="M9.37387 18.8932C13.0822 18.8932 14.9364 20.4041 14.9364 23.357V24.5244H18.4387V23.46C18.4387 18.5499 15.2797 16.1807 9.37387 16.1807C3.46799 16.1807 0.309029 18.8932 0.309029 22.7733C0.309029 26.3443 2.26621 27.6147 6.97031 28.1984L11.0564 28.6792C14.3183 29.1255 15.3828 30.4303 15.3828 32.6622V34.1387C15.3828 36.7139 13.7003 38.2247 9.54555 38.2247C5.39083 38.2247 3.53666 36.7826 3.53666 33.6923V32.4218H0L0 33.6923C0 38.5681 3.53666 40.9716 9.54555 40.9716C15.2111 40.9716 18.9881 38.5681 18.9881 34.1387C18.9881 30.6707 17.3056 28.9538 12.3611 28.3701L8.51545 27.9581C5.42517 27.546 3.91436 26.5846 3.91436 24.1467V23.0136C3.91436 20.301 5.52818 18.8932 9.37387 18.8932Z" fill="#101010"/>
<path d="M64.5396 33.3912C64.5396 34.6502 64.8257 35.7376 65.398 36.6532C65.9474 37.546 66.6685 38.2785 67.5612 38.8507C68.454 39.423 69.4612 39.8351 70.5828 40.0869C71.6816 40.3616 72.7689 40.4989 73.8448 40.4989C75.1496 40.4989 76.3971 40.3272 77.5875 39.9839C78.7549 39.6405 79.785 39.114 80.6778 38.4044C81.5705 37.6947 82.2801 36.8134 82.8066 35.7605C83.3331 34.7075 83.6193 33.4828 83.665 32.0865C83.665 31.5371 83.4705 31.0564 83.0813 30.6443C82.6922 30.2094 82.2229 29.9919 81.6735 29.9919C81.147 29.9919 80.6892 30.1979 80.3001 30.61C79.9109 30.9991 79.6934 31.4684 79.6477 32.0178C79.6706 32.5672 79.8766 33.0593 80.2657 33.4943C80.6549 33.9063 81.1356 34.1123 81.7079 34.1123L82.1199 34.078C82.3259 34.078 82.5205 34.1466 82.7036 34.284C82.8639 34.4213 82.924 34.4665 82.924 34.6496L82.8897 34.8556C82.6379 35.5652 82.2831 36.2405 81.8252 36.8815C81.3674 37.4995 80.7723 38.1736 80.0397 38.6314C79.3072 39.0663 78.4259 39.4212 77.3958 39.6959C76.3428 39.9477 75.1381 40.0525 73.7418 40.0525C72.231 40.0525 71.1105 39.8344 70.2635 39.5597C69.3936 39.2621 68.7527 38.8615 68.3407 38.3579C67.9057 37.8543 67.5841 37.3399 67.4925 36.6532C67.401 35.9665 67.3552 35.234 67.3552 34.4557V33.4943C67.3552 32.6931 67.5612 32.0407 67.9733 31.5371C68.3624 31.0106 68.8889 30.5756 69.5527 30.2323C70.1937 29.8889 70.9491 29.6142 71.8189 29.4082C72.6659 29.1793 73.5472 28.9618 74.4629 28.7558C75.4929 28.5498 76.5116 28.3209 77.5188 28.0691C78.526 27.7944 79.4302 27.4281 80.2314 26.9703C81.0326 26.4896 81.685 25.883 82.1886 25.1505C82.6693 24.3951 82.9096 23.4337 82.9096 22.2662C82.9096 21.053 82.6693 20.0114 82.1886 19.1416C81.685 18.2717 81.0326 17.5507 80.2314 16.9784C79.4302 16.4061 78.5146 15.9826 77.4845 15.7079C76.4544 15.4332 75.4014 15.2959 74.3255 15.2959C73.1352 15.2959 72.025 15.4447 70.9949 15.7423C69.9648 16.0399 69.0606 16.4977 68.2823 17.1157C67.504 17.7338 66.8745 18.5121 66.3938 19.4506C65.9131 20.3663 65.6384 21.4536 65.5697 22.7126C65.5697 22.7813 65.5926 22.9415 65.6384 23.1933C65.6613 23.4451 65.7414 23.6969 65.8787 23.9487C65.9932 24.2005 66.1878 24.4294 66.4624 24.6354C66.7142 24.8414 67.0805 24.9445 67.5612 24.9445C68.1106 24.9445 68.5799 24.7384 68.969 24.3264C69.3582 23.9144 69.5642 23.4222 69.5871 22.8499C69.5642 22.3234 69.3696 21.8656 69.0033 21.4765C68.6142 21.0644 68.1564 20.8355 67.6299 20.7897H67.5612H67.2865C67.0576 20.7897 66.8745 20.7211 66.7371 20.5837C66.5769 20.4464 66.4968 20.2861 66.4968 20.103L66.5655 19.794C66.8401 19.2446 67.195 18.7295 67.6299 18.2488C68.0648 17.7452 68.6142 17.3103 69.278 16.9441C69.919 16.5778 70.6744 16.2917 71.5443 16.0856C72.3912 15.8567 73.3641 15.7423 74.4629 15.7423C75.7905 15.7423 76.8321 15.8911 77.5875 16.1886C78.3429 16.4633 78.9152 16.8525 79.3043 17.3561C79.6706 17.8368 79.8995 18.4091 79.991 19.0729C80.0597 19.7139 80.094 20.3891 80.094 21.0988V22.0259C80.094 22.7126 79.9109 23.2849 79.5447 23.7427C79.1784 24.1776 78.6977 24.5553 78.1025 24.8758C77.4845 25.1734 76.7863 25.4252 76.008 25.6312C75.2068 25.8372 74.3713 26.0318 73.5014 26.2149C72.4484 26.4438 71.3955 26.6956 70.3425 26.9703C69.2666 27.245 68.3052 27.6456 67.4582 28.1721C66.5883 28.6757 65.8902 29.351 65.3637 30.1979C64.8143 31.022 64.5396 32.0865 64.5396 33.3912Z" fill="#101010"/>
<path d="M87.9234 40.432H100.56V39.8525H97.7441C95.9242 39.8525 95.7525 39.9543 95.7525 38.3164V16.5131H97.9501C101.556 16.5131 102.757 17.1614 103.032 20.437L103.135 21.836L103.822 21.8018L103.272 13.9199L102.79 13.9773L102.962 15.9222H85.5215L85.6932 13.9432L85.2107 13.8857L84.627 21.8018L85.3137 21.836L85.4511 20.437C85.6228 17.1614 86.8933 16.5131 90.5331 16.5131H92.7994V38.3164C92.7994 39.9543 92.6277 39.8525 90.8078 39.8525H87.9234V40.432Z" fill="#101010"/>
<path d="M64.5272 33.4271C64.5272 34.692 64.8147 35.7845 65.3896 36.7044C65.9416 37.6013 66.666 38.3373 67.563 38.9122C68.4599 39.4872 69.4718 39.9011 70.5987 40.1541C71.7026 40.4301 72.795 40.5681 73.876 40.5681C75.1869 40.5681 76.4403 40.3956 77.6362 40.0506C78.8091 39.7056 79.844 39.1767 80.7409 38.4637C81.6379 37.7508 82.3508 36.8654 82.8798 35.8075C83.4087 34.7495 83.6962 33.5191 83.7422 32.1162C83.7422 31.5643 83.5467 31.0813 83.1557 30.6674C82.7648 30.2304 82.2933 30.0119 81.7413 30.0119C81.2124 30.0119 80.7524 30.2189 80.3615 30.6329C79.9705 31.0238 79.752 31.4953 79.706 32.0472C79.729 32.5992 79.936 33.0937 80.327 33.5306C80.7179 33.9446 81.2009 34.1516 81.7758 34.1516L82.1898 34.1171C82.3968 34.1171 82.5923 34.1861 82.7763 34.3241C82.9373 34.4621 83.0177 34.623 83.0177 34.807L82.9832 35.014C82.7303 35.727 82.3738 36.4054 81.9138 37.0494C81.4539 37.6703 80.8559 38.2108 80.12 38.6707C79.384 39.1077 78.4986 39.4642 77.4637 39.7401C76.4058 39.9931 75.1754 40.1196 73.7725 40.1196C72.2546 40.1196 71.0702 39.9816 70.2193 39.7056C69.3453 39.4067 68.7014 39.0042 68.2874 38.4982C67.8504 37.9923 67.586 37.3943 67.494 36.7044C67.402 36.0144 67.356 35.2785 67.356 34.4966V33.5306C67.356 32.7257 67.563 32.0702 67.9769 31.5643C68.3679 31.0353 68.8969 30.5984 69.5638 30.2534C70.2078 29.9084 70.9667 29.6324 71.8406 29.4255C72.6916 29.1955 73.577 28.977 74.4969 28.77C75.5318 28.563 76.5553 28.333 77.5672 28.0801C78.5791 27.8041 79.4875 27.4361 80.2925 26.9761C81.0974 26.4932 81.7528 25.8837 82.2588 25.1478C82.7418 24.3889 82.9832 23.4229 82.9832 22.25C82.9832 21.0311 82.7418 19.9847 82.2588 19.1108C81.7528 18.2368 81.0974 17.5124 80.2925 16.9374C79.4875 16.3625 78.5676 15.937 77.5327 15.661C76.4978 15.3851 75.4398 15.2471 74.3589 15.2471C73.163 15.2471 72.0476 15.3966 71.0127 15.6955C69.9778 15.9945 69.0693 16.4545 68.2874 17.0754C67.5055 17.6964 66.873 18.4783 66.3901 19.4212C65.9071 20.3412 65.6311 21.4336 65.5621 22.6985C65.5621 22.7675 65.5851 22.9285 65.6311 23.1814C65.6541 23.4344 65.7346 23.6874 65.8726 23.9404C65.9876 24.1934 66.1831 24.4233 66.459 24.6303C66.712 24.8373 67.08 24.9408 67.563 24.9408C68.1149 24.9408 68.5864 24.7338 68.9773 24.3199C69.3683 23.9059 69.5753 23.4114 69.5983 22.8365C69.5753 22.3075 69.3798 21.8475 69.0118 21.4566C68.6209 21.0426 68.1609 20.8126 67.632 20.7666H67.563H67.287C67.057 20.7666 66.873 20.6976 66.735 20.5597C66.574 20.4217 66.4935 20.2607 66.4935 20.0767L66.5625 19.7662C66.8385 19.2143 67.195 18.6968 67.632 18.2138C68.0689 17.7079 68.6209 17.2709 69.2878 16.9029C69.9318 16.535 70.6907 16.2475 71.5646 16.0405C72.4156 15.8105 73.393 15.6955 74.4969 15.6955C75.8308 15.6955 76.8772 15.845 77.6362 16.144C78.3951 16.42 78.9701 16.8109 79.361 17.3169C79.729 17.7999 79.959 18.3748 80.051 19.0418C80.12 19.6857 80.1545 20.3642 80.1545 21.0771V22.0085C80.1545 22.6985 79.9705 23.2734 79.6025 23.7334C79.2345 24.1704 78.7516 24.5498 78.1536 24.8718C77.5327 25.1708 76.8312 25.4238 76.0493 25.6308C75.2444 25.8377 74.4049 26.0332 73.531 26.2172C72.4731 26.4472 71.4152 26.7002 70.3572 26.9761C69.2763 27.2521 68.3104 27.6546 67.4595 28.1836C66.5855 28.6895 65.8841 29.368 65.3551 30.2189C64.8032 31.0468 64.5272 32.1162 64.5272 33.4271Z" fill="#101010"/>
<path d="M67.3729 20.77C67.6952 20.7505 68.0199 20.8351 68.1419 20.8799L67.8001 21.6244L66.2256 20.5869L66.5307 19.4884L68.1419 17.3524L70.7906 16.0219L73.0121 15.4727H75.9415L78.2606 16.0219L80.6286 18.1213L82.2763 24.1388C81.5277 25.2211 80.1525 26.0638 80.1525 20.77C80.1525 14.2398 71.3032 15.2529 68.4471 17.7063C66.1349 19.6925 66.9701 20.7945 67.3729 20.77Z" fill="#101010"/>
<path d="M81.7861 34.1599C81.2783 34.1794 80.8625 33.9605 80.712 33.8547L82.3354 33.574L83.2142 34.526L82.7015 35.9785L81.4443 37.7606L80.2482 38.7615L78.3196 39.6403L75.1949 40.2506H71.997L69.3605 39.6403L67.5784 38.5418L65.54 32.8294C66.2154 30.673 67.5247 27.9177 67.3587 34.1476C67.1512 41.935 78.0511 39.8966 80.5655 37.8949C83.0799 35.8931 82.4208 34.1354 81.7861 34.1599Z" fill="#101010"/>
</svg>
