<svg width="36" height="36" viewBox="0 0 36 36" fill="none" xmlns="http://www.w3.org/2000/svg">
<g clip-path="url(#clip0)">
<path d="M7.7998 12.4604C5.97759 12.4604 4.49512 13.9429 4.49512 15.7651C4.49512 17.5874 5.97759 19.0698 7.7998 19.0698C9.62202 19.0698 11.1045 17.5874 11.1045 15.7651C11.1045 13.9429 9.62202 12.4604 7.7998 12.4604Z" fill="black"/>
<path d="M18.0088 12.4604C16.1866 12.4604 14.7041 13.9429 14.7041 15.7651C14.7041 17.5874 16.1866 19.0698 18.0088 19.0698C19.831 19.0698 21.3135 17.5874 21.3135 15.7651C21.3135 13.9429 19.831 12.4604 18.0088 12.4604Z" fill="black"/>
<path d="M28.2187 12.4604C26.3965 12.4604 24.9141 13.9429 24.9141 15.7651C24.9141 17.5874 26.3965 19.0698 28.2187 19.0698C30.041 19.0698 31.5234 17.5874 31.5234 15.7651C31.5234 13.9429 30.041 12.4604 28.2187 12.4604Z" fill="black"/>
</g>
<defs>
<clipPath id="clip0">
<rect width="36" height="36" fill="white"/>
</clipPath>
</defs>
</svg>
