<svg width="35" height="35" viewBox="0 0 35 35" fill="none" xmlns="http://www.w3.org/2000/svg">
<path d="M12.0318 4.92725C11.7327 4.92725 11.4902 5.16968 11.4902 5.46876V20.7813C11.4902 21.0803 11.7327 21.3228 12.0318 21.3228C12.3308 21.3228 12.5733 21.0803 12.5733 20.7813V5.46876C12.5733 5.16968 12.3308 4.92725 12.0318 4.92725Z" fill="black"/>
<path d="M24.6094 0H10.3906C9.18252 0 8.20312 0.976664 8.20312 2.18148V34.9035C8.20312 34.969 8.23173 35 8.28576 35C9.22545 35 17.865 25.6322 17.865 25.6322C17.865 25.6322 25.8527 35 26.7205 35C26.7704 35 26.7969 34.9689 26.7969 34.9035V2.18148C26.7969 0.976664 25.8175 0 24.6094 0ZM25.7047 32.7299C24.0178 31.0152 21.2028 27.8632 18.6961 24.9235L17.897 23.9864L17.0621 24.8917C14.2535 27.937 11.0969 31.1997 9.2954 32.8716V2.18148C9.2954 1.58085 9.78671 1.09222 10.3906 1.09222H24.6094C25.2133 1.09222 25.7047 1.58085 25.7047 2.18148V32.7299Z" fill="black"/>
</svg>
