<svg width="27" height="26" viewBox="0 0 27 26" fill="none" xmlns="http://www.w3.org/2000/svg">
<path d="M22.5042 14.5511C25.3596 11.6951 25.3592 7.06511 22.5032 4.2097C19.6473 1.35425 15.0172 1.35461 12.1618 4.21059C9.8054 6.56741 9.39927 10.13 10.9323 12.9089L2.68262 21.1586L5.55521 24.0312L13.805 15.7814C16.5842 17.3148 20.1475 16.9082 22.5042 14.5511ZM5.55521 22.8822L3.83166 21.1586L11.378 13.6123C11.6117 13.9405 11.8682 14.2576 12.1627 14.5521C12.4569 14.8461 12.7737 15.1023 13.1016 15.3358L5.55521 22.8822ZM12.7368 13.977C10.2026 11.4429 10.2025 7.31942 12.7364 4.78507C13.9639 3.55726 15.5962 2.88102 17.3324 2.88085C19.0686 2.88069 20.7009 3.55665 21.9287 4.78426L21.9291 4.78458L21.9292 4.7847C24.4633 7.31881 24.4635 11.4423 21.9296 13.9766C20.702 15.2044 19.0698 15.8807 17.3336 15.8809C15.5973 15.881 13.965 15.2051 12.7368 13.977Z" fill="black"/>
<path d="M21.0678 5.64645C20.0701 4.64902 18.7438 4.09977 17.3328 4.09961C15.922 4.09989 14.5957 4.64918 13.5984 5.64702C13.4398 5.80566 13.4399 6.06306 13.5984 6.22153C13.7572 6.38034 14.0143 6.38018 14.1729 6.22153C15.0171 5.37743 16.1392 4.91231 17.3331 4.91231C18.5268 4.91203 19.6492 5.37686 20.4933 6.22101C20.6521 6.37977 20.9092 6.37961 21.0678 6.22101C21.2264 6.06237 21.2263 5.80497 21.0678 5.64645Z" fill="black"/>
</svg>
