<svg width="97" height="90" viewBox="0 0 97 90" fill="none" xmlns="http://www.w3.org/2000/svg">
<path fill-rule="evenodd" clip-rule="evenodd" d="M62.8202 11.3002C75.8134 11.3002 82.3101 16.5938 82.3101 26.9403V31.0308H94.5815V27.3012C94.5815 10.0972 83.5131 1.7959 62.8202 1.7959C58.9131 1.7959 55.3491 2.13473 52.138 2.77595C54.6552 3.93444 60.2971 7.26121 62.7264 11.3003L62.7656 11.3003L62.8202 11.3002ZM52.138 12.8319C51.4622 11.1595 48.7623 7.38584 43.3689 5.67016C35.2753 9.67155 31.0588 16.5042 31.0588 24.895C31.0588 37.4071 37.9164 41.8585 54.3986 43.9037L68.7153 45.588C80.1445 47.152 83.8741 51.7237 83.8741 59.5438V64.717C83.8741 73.7401 77.979 79.0337 63.4217 79.0337C63.1944 79.0337 62.9691 79.0324 62.7458 79.03C59.8793 83.1603 53.9138 86.4188 51.2894 87.5318C54.9247 88.2836 58.9805 88.6583 63.4217 88.6583C83.2725 88.6583 96.5064 80.2367 96.5064 64.717C96.5064 52.5659 90.6113 46.5505 73.287 44.5052L59.8125 43.0616C48.9847 41.6179 43.6912 38.2492 43.6912 29.7074V25.7372C43.6912 19.3028 46.2828 14.9637 52.138 12.8319ZM42.3678 63.153C42.3678 71.8482 46.5574 76.8193 55.7466 78.4401C54.0094 79.8245 48.7058 82.871 41.3888 83.9819C34.0113 79.8299 29.9761 72.9018 29.9761 63.153V58.7016H42.3678V63.153Z" fill="#101010"/>
<path fill-rule="evenodd" clip-rule="evenodd" d="M3.89407 75.7168C1.88895 72.5086 0.886383 68.6989 0.886383 64.2876C0.886383 59.7159 1.84884 55.9863 3.77377 53.0989C5.61849 50.1313 8.06475 47.7653 11.1126 46.0008C14.0802 44.156 17.4488 42.7524 21.2184 41.79C24.9079 40.8275 28.5973 39.9453 32.2868 39.1432C33.0336 38.986 33.7732 38.8263 34.5056 38.6643C38.9939 42.599 45.9621 44.0707 50.2523 44.4951C49.4629 44.7566 47.1921 45.4137 46.3628 45.6398C42.8338 46.5221 39.2646 47.3241 35.6554 48.046C32.4472 48.7678 29.3593 49.5298 26.3917 50.3318C23.3439 51.0537 20.6971 52.0162 18.4513 53.2192C16.1254 54.4223 14.2807 55.9462 12.9172 57.7909C11.4735 59.5555 10.7516 61.8413 10.7516 64.6485L10.7516 68.0171C10.7516 70.7441 10.912 73.3107 11.2329 75.7168C11.5537 78.123 12.476 80.2083 13.9999 81.9729C15.4436 83.7374 17.6894 85.141 20.7372 86.1836C23.7048 87.1461 27.8354 87.6273 33.1289 87.6273C38.0215 87.6273 42.3124 87.1862 46.0019 86.3039C49.6111 85.3415 52.699 84.0983 55.2656 82.5744C57.8322 80.9703 59.9175 79.0855 61.5216 76.9199C63.1257 74.6742 64.3689 72.3081 65.2512 69.8217L65.3715 69.0999C65.3715 68.4583 65.0908 67.8968 64.5293 67.4156C63.8877 66.9344 63.2059 66.6937 62.4841 66.6937L61.0404 66.814C59.0353 66.814 57.3509 66.0922 55.9875 64.6485C54.624 63.1246 53.9021 61.4002 53.8219 59.4753C53.9823 57.5503 54.7443 55.9061 56.1078 54.5426C57.4713 53.0989 59.0754 52.3771 60.9201 52.3771C62.845 52.3771 64.4892 53.139 65.8527 54.6629C67.2162 56.1066 67.8979 57.7909 67.8979 59.7159C67.7375 64.6084 66.735 68.8994 64.8902 72.5888C63.0455 76.2783 60.5592 79.3662 57.4311 81.8526C54.3031 84.3389 50.6939 86.1836 46.6034 87.3867C42.4327 88.5898 38.0616 89.1913 33.4898 89.1913C29.7202 89.1913 25.9104 88.7101 22.0606 87.7476C18.1305 86.8654 14.6015 85.4217 11.4735 83.4166C8.34547 81.4114 5.819 78.8448 3.89407 75.7168ZM56.9942 41.1006C51.1481 40.3928 47.2036 36.7697 46.5278 35.2873C47.1765 35.0211 47.8032 34.7424 48.408 34.4512C50.4934 33.3283 52.1777 32.0049 53.461 30.481C54.7443 28.8769 55.3859 26.8718 55.3859 24.4656V21.2173C55.3859 18.7309 55.2656 16.3649 55.025 14.1191C54.7042 11.7932 53.9021 9.78804 52.6188 8.10373C51.2553 6.33921 49.2502 4.97572 46.6034 4.01326C43.9566 2.97059 40.3073 2.44925 35.6554 2.44925C31.8055 2.44925 28.3968 2.85028 25.4292 3.65234C22.3814 4.37418 19.7346 5.37675 17.4889 6.66004C15.1629 7.94332 13.238 9.46722 11.7141 11.2317C10.1902 12.9161 8.94701 14.7207 7.98454 16.6456L7.74393 17.7284C7.74393 18.37 8.02464 18.9315 8.58608 19.4127C9.06731 19.8939 9.70896 20.1345 10.511 20.1345H11.4735H11.7141C13.5588 20.295 15.1629 21.097 16.5264 22.5407C17.8097 23.9042 18.4914 25.5083 18.5717 27.353C18.4914 29.3581 17.7696 31.0826 16.4061 32.5263C15.0426 33.97 13.3984 34.6918 11.4735 34.6918C9.78917 34.6918 8.50588 34.3309 7.62362 33.609C6.66116 32.8872 5.97942 32.0851 5.57839 31.2029C5.09716 30.3206 4.81643 29.4384 4.73623 28.5561C4.57582 27.6738 4.49562 27.1124 4.49562 26.8718C4.73623 22.4605 5.6987 18.6507 7.383 15.4425C9.06732 12.1541 11.273 9.42712 13.9999 7.26157C16.7269 5.09603 19.895 3.49192 23.5043 2.44925C27.1135 1.40659 31.0035 0.885254 35.1742 0.885254C38.9438 0.885254 42.6333 1.36648 46.2425 2.32894C49.8517 3.29141 53.06 4.77521 55.8671 6.78034C58.6743 8.78548 60.9602 11.3119 62.7247 14.3598C64.409 17.4076 65.2512 21.0569 65.2512 25.3078C65.2512 29.3982 64.409 32.7669 62.7247 35.4137C61.2234 37.5974 59.2503 39.5555 56.9942 41.1006Z" fill="#101010"/>
<path d="M10.8109 20.1468C11.9347 20.0787 13.067 20.3738 13.4927 20.5299L12.3008 23.1265L6.80957 19.5082L7.87376 15.6771L13.4927 8.22778L22.7299 3.58791L30.4772 1.67236H40.6934L48.7813 3.58791L57.0394 10.9095L62.786 31.8954C60.1752 35.6697 55.3793 38.6085 55.3793 20.1467C55.3793 -2.62706 24.5177 0.906146 14.5569 9.46227C6.49323 16.3888 9.40618 20.2319 10.8109 20.1468Z" fill="#101010"/>
<path d="M61.0765 66.8429C59.3057 66.911 57.8555 66.1476 57.3305 65.7787L62.992 64.7997L66.0569 68.1199L64.2691 73.1855L59.8846 79.4004L55.713 82.8909L48.9873 85.9558L38.09 88.0842H26.9372L17.7426 85.9558L11.5277 82.1247L4.41895 62.203C6.77434 54.6827 11.3404 45.0738 10.7615 66.8003C10.0378 93.9585 48.0508 86.8497 56.8197 79.8686C65.5886 72.8875 63.29 66.7578 61.0765 66.8429Z" fill="#101010"/>
<path d="M54.3983 43.9032C37.9162 41.858 31.0586 37.4066 31.0586 24.8945L43.6909 25.7367V29.7069C43.6909 38.2487 48.9845 41.6173 59.8122 43.061L73.2867 44.5047C90.6111 46.55 96.5062 52.5654 96.5062 64.7165C96.5062 80.2362 83.2723 88.6578 63.4215 88.6578V79.0331C77.9787 79.0331 83.8738 73.7396 83.8738 64.7165V59.5432C83.8738 51.7232 80.1443 47.1515 68.715 45.5875L54.3983 43.9032Z" fill="#101010"/>
</svg>
