<svg width="35" height="35" viewBox="0 0 35 35" fill="none" xmlns="http://www.w3.org/2000/svg">
<g clip-path="url(#clip0)">
<path d="M30.9658 28.6491C30.8873 28.357 30.5887 28.1839 30.2961 28.2625L27.3529 29.0513L26.0327 24.124C26.0319 24.121 26.0295 24.1189 26.0287 24.1158C28.1265 23.2078 29.3195 20.416 29.1645 17.1301C29.1649 17.1212 29.1697 17.1139 29.1697 17.105C29.1699 17.0923 29.1636 17.0816 29.1628 17.0691C29.117 16.193 28.9791 15.2839 28.7329 14.3652C28.2506 12.566 27.433 10.944 26.3686 9.67457C26.2319 9.51226 26.014 9.44226 25.8078 9.49782L17.8574 11.6282C17.6517 11.6832 17.4969 11.8525 17.46 12.0618C17.2633 13.1824 17.2545 14.3876 17.421 15.6132C17.35 15.5267 17.2552 15.4603 17.1428 15.4302L9.19223 13.3003C8.98666 13.2442 8.76819 13.3147 8.63147 13.4771C7.56763 14.746 6.75 16.3674 6.26722 18.1672C5.0904 22.5589 6.30222 26.762 8.97157 27.9177C8.97064 27.9208 8.96823 27.9229 8.96741 27.926L7.6472 32.8531L4.70403 32.0644C4.41298 31.9859 4.11231 32.159 4.03433 32.4511C3.95634 32.7427 4.12937 33.0428 4.42097 33.1208L7.89209 34.051L11.3643 34.9814C11.4118 34.9943 11.4593 35.0001 11.5063 35.0001C11.7477 35.0001 11.9688 34.8394 12.034 34.5948C12.1119 34.3032 11.9389 34.0031 11.6473 33.9251L8.7036 33.1362L10.0238 28.209C10.0245 28.2065 10.0236 28.2041 10.0243 28.2017C10.1786 28.2204 10.3338 28.232 10.49 28.232C11.7087 28.232 12.9712 27.667 14.1307 26.5861C15.5433 25.2685 16.6488 23.323 17.2421 21.1072C17.6224 19.6886 17.763 18.2629 17.666 16.9229C17.6965 17.0503 17.7244 17.1779 17.7585 17.3052C18.8763 21.4767 21.7741 24.4258 24.5379 24.4258C24.6843 24.4258 24.8303 24.4144 24.9758 24.3976C24.9766 24.4008 24.9755 24.4039 24.9763 24.4071L26.2965 29.3343L23.3533 30.1231C23.0617 30.2011 22.8887 30.5012 22.9666 30.7928C23.0324 31.0374 23.2529 31.1982 23.4943 31.1982C23.5413 31.1982 23.5888 31.1923 23.6364 31.1795L30.5791 29.3188C30.8707 29.2409 31.0438 28.9407 30.9658 28.6491ZM9.25315 14.4491L16.5158 16.3946C16.6768 17.5847 16.5987 18.9115 16.3181 20.2185L6.96432 20.423C7.02956 19.7796 7.1444 19.1189 7.32356 18.4502C7.72519 16.9527 8.40506 15.546 9.25315 14.4491ZM18.4843 12.5921L25.747 10.6466C26.5951 11.7441 27.2754 13.1513 27.6765 14.6483C27.849 15.2925 27.961 15.929 28.0279 16.55L18.7861 16.4844H18.7823C18.7535 16.4844 18.7285 16.4965 18.7009 16.5008C18.4047 15.1684 18.3203 13.81 18.4843 12.5921Z" fill="#FFA741"/>
<path d="M30.9658 28.6491C30.8873 28.357 30.5887 28.1839 30.2961 28.2625L27.3529 29.0513L26.0327 24.124C26.0319 24.121 26.0295 24.1189 26.0287 24.1158C28.1265 23.2078 29.3195 20.416 29.1645 17.1301C29.1649 17.1212 29.1697 17.1139 29.1697 17.105C29.1699 17.0923 29.1636 17.0816 29.1628 17.0691C29.117 16.193 28.9791 15.2839 28.7329 14.3652C28.2506 12.566 27.433 10.944 26.3686 9.67457C26.2319 9.51226 26.014 9.44226 25.8078 9.49782L17.8574 11.6282C17.6517 11.6832 17.4969 11.8525 17.46 12.0618C17.2633 13.1824 17.2545 14.3876 17.421 15.6132C17.35 15.5267 17.2552 15.4603 17.1428 15.4302L9.19223 13.3003C8.98666 13.2442 8.76819 13.3147 8.63147 13.4771C7.56763 14.746 6.75 16.3674 6.26722 18.1672C5.0904 22.5589 6.30222 26.762 8.97157 27.9177C8.97064 27.9208 8.96823 27.9229 8.96741 27.926L7.6472 32.8531L4.70403 32.0644C4.41298 31.9859 4.11231 32.159 4.03433 32.4511C3.95634 32.7427 4.12937 33.0428 4.42097 33.1208L7.89209 34.051L7.89236 34.0511L7.89291 34.0512L11.3643 34.9814C11.4118 34.9943 11.4593 35.0001 11.5063 35.0001C11.7477 35.0001 11.9688 34.8394 12.034 34.5948C12.1119 34.3032 11.9389 34.0031 11.6473 33.9251L8.7036 33.1362L10.0238 28.209C10.0245 28.2065 10.0236 28.2041 10.0243 28.2017C10.1786 28.2204 10.3338 28.232 10.49 28.232C11.7087 28.232 12.9712 27.667 14.1307 26.5861C15.5433 25.2685 16.6488 23.323 17.2421 21.1072C17.6224 19.6886 17.763 18.2629 17.666 16.9229C17.6965 17.0503 17.7244 17.1779 17.7585 17.3052C18.8763 21.4767 21.7741 24.4258 24.5379 24.4258C24.6843 24.4258 24.8303 24.4144 24.9758 24.3976C24.9766 24.4008 24.9755 24.4039 24.9763 24.4071L26.2965 29.3343L23.3533 30.1231C23.0617 30.2011 22.8887 30.5012 22.9666 30.7928C23.0324 31.0374 23.2529 31.1982 23.4943 31.1982C23.5413 31.1982 23.5888 31.1923 23.6364 31.1795L30.5791 29.3188C30.8707 29.2409 31.0438 28.9407 30.9658 28.6491ZM9.25315 14.4491L16.5158 16.3946C16.6768 17.5847 16.5987 18.9115 16.3181 20.2185L6.96432 20.423C7.02956 19.7796 7.1444 19.1189 7.32356 18.4502C7.72519 16.9527 8.40506 15.546 9.25315 14.4491ZM13.3846 25.7861C12.1888 26.9011 10.9044 27.3471 9.77066 27.0438C7.95897 26.5583 6.88967 24.3116 6.90247 21.5186L16.037 21.3189C15.4727 23.13 14.5447 24.7042 13.3846 25.7861ZM18.4843 12.5921L25.747 10.6466C26.5951 11.7441 27.2754 13.1513 27.6765 14.6483C27.849 15.2925 27.961 15.929 28.0279 16.55L18.7861 16.4844C18.785 16.4844 18.7834 16.4844 18.7823 16.4844C18.7535 16.4844 18.7285 16.4965 18.7009 16.5008C18.4047 15.1684 18.3203 13.81 18.4843 12.5921ZM18.9826 17.5796L28.0987 17.6443C28.1309 20.4712 27.057 22.7517 25.23 23.2418C22.9007 23.8661 20.1794 21.3543 18.9826 17.5796Z" fill="black"/>
<path d="M13.2583 10.4743C12.9432 10.4695 10.1491 10.4108 9.10387 9.80732C8.15969 9.26153 7.83442 8.04971 8.3797 7.10553C8.64406 6.64785 9.07079 6.32099 9.5808 6.18427C10.0919 6.047 10.6238 6.1175 11.082 6.38136C12.1267 6.98533 13.5745 9.37632 13.7358 9.64708C13.8378 9.81749 13.8388 10.0295 13.7401 10.2009C13.6423 10.3702 13.4613 10.4743 13.2664 10.4743H13.2583Z" fill="#FFA741"/>
<path d="M20.1026 7.99811C19.9889 7.99811 19.8762 7.96289 19.7811 7.89398C19.6209 7.77701 19.536 7.58314 19.5595 7.3861C19.5974 7.07312 19.9467 4.29976 20.6565 3.32353C21.2979 2.4418 22.5374 2.2458 23.4186 2.88505C23.8459 3.19638 24.1268 3.65461 24.2096 4.17589C24.2924 4.69815 24.1668 5.22102 23.856 5.64775C23.1479 6.62452 20.6186 7.8149 20.3323 7.94736C20.2591 7.98154 20.1806 7.99811 20.1026 7.99811Z" fill="#FFA741"/>
<path d="M15.2353 5.89858C15.3399 6.00648 15.482 6.06472 15.6278 6.06472C15.6748 6.06472 15.7223 6.05882 15.7693 6.04602C15.9611 5.99472 16.1096 5.84362 16.1581 5.65134C16.235 5.34586 16.9021 2.63177 16.5897 1.46594C16.3066 0.413809 15.2219 -0.214222 14.1666 0.0672542C13.6566 0.203973 13.2304 0.531332 12.9661 0.989012C12.7017 1.44669 12.6318 1.97968 12.7685 2.48969C13.0809 3.65503 15.0158 5.67272 15.2353 5.89858Z" fill="#FFA741"/>
<path d="M9.10387 9.80732C10.1491 10.4108 12.9432 10.4695 13.2583 10.4743C13.261 10.4743 13.2637 10.4743 13.2664 10.4743C13.4613 10.4743 13.6423 10.3702 13.7401 10.2009C13.8388 10.0295 13.8378 9.81749 13.7358 9.64708C13.5745 9.37632 12.1267 6.98533 11.082 6.38136C10.6238 6.1175 10.0919 6.047 9.5808 6.18427C9.07079 6.32099 8.64406 6.64785 8.3797 7.10553C7.83442 8.04971 8.15969 9.26153 9.10387 9.80732ZM9.32711 7.65241C9.44518 7.44782 9.63582 7.30153 9.86442 7.24061C9.94076 7.21983 10.0176 7.20966 10.0946 7.20966C10.2478 7.20966 10.3984 7.25024 10.5346 7.32877C10.9725 7.58192 11.6759 8.49728 12.2404 9.3352C11.2332 9.26525 10.0898 9.11355 9.65075 8.85991C9.22883 8.61639 9.08358 8.07432 9.32711 7.65241Z" fill="black"/>
<path d="M19.7811 7.89398C19.8762 7.96289 19.9889 7.99811 20.1026 7.99811C20.1806 7.99811 20.2591 7.98154 20.3323 7.94736C20.6186 7.8149 23.1479 6.62452 23.856 5.64775C24.1668 5.22102 24.2924 4.69815 24.2096 4.17589C24.1268 3.65461 23.8459 3.19638 23.4186 2.88505C22.5374 2.2458 21.2979 2.4418 20.6565 3.32353C19.9467 4.29976 19.5974 7.07312 19.5595 7.3861C19.536 7.58314 19.6209 7.77701 19.7811 7.89398ZM21.5409 3.96649C21.7139 3.72887 21.9847 3.60227 22.2581 3.60227C22.4381 3.60227 22.6191 3.65674 22.7756 3.77C22.9663 3.90885 23.0923 4.11393 23.1291 4.34728C23.166 4.58069 23.11 4.81404 22.971 5.00528C22.6741 5.41489 21.6904 6.01837 20.7985 6.49262C20.9737 5.49818 21.2434 4.37615 21.5409 3.96649Z" fill="black"/>
<path d="M15.2353 5.89858C15.3399 6.00648 15.482 6.06472 15.6278 6.06472C15.6748 6.06472 15.7223 6.05882 15.7693 6.04602C15.9611 5.99472 16.1096 5.84362 16.1581 5.65134C16.235 5.34586 16.9021 2.63177 16.5897 1.46594C16.3066 0.413809 15.2219 -0.214222 14.1666 0.0672542C13.6566 0.203973 13.2304 0.531332 12.9661 0.989012C12.7017 1.44669 12.6318 1.97968 12.7685 2.48969C13.0809 3.65503 15.0158 5.67272 15.2353 5.89858ZM13.9135 1.53589C14.0315 1.33136 14.2222 1.18447 14.4491 1.1236C14.5255 1.10331 14.6019 1.09368 14.6777 1.09368C15.0681 1.09368 15.427 1.35482 15.5333 1.7495C15.6641 2.23818 15.5141 3.38214 15.3212 4.37335C14.658 3.61177 13.9562 2.69586 13.8248 2.20668C13.764 1.97864 13.7955 1.74042 13.9135 1.53589Z" fill="black"/>
</g>
<defs>
<clipPath id="clip0">
<rect width="35" height="35" fill="white"/>
</clipPath>
</defs>
</svg>
