<svg width="26" height="25" viewBox="0 0 26 25" fill="none" xmlns="http://www.w3.org/2000/svg">
<g clip-path="url(#clip0)">
<path d="M16.9009 12.1152H8.30715C8.0943 12.1152 7.92188 12.2877 7.92188 12.5005C7.92188 12.7134 8.0943 12.8858 8.30715 12.8858H16.9009C17.1138 12.8858 17.2862 12.7134 17.2862 12.5005C17.2862 12.2877 17.1138 12.1152 16.9009 12.1152Z" fill="#FF5555"/>
<path d="M12.6035 0C5.69996 0 0.103516 5.59641 0.103516 12.5C0.103516 19.4036 5.69996 25 12.6035 25C19.5071 25 25.1035 19.4036 25.1035 12.5C25.1035 5.59641 19.5071 0 12.6035 0ZM12.6035 24.2188C6.1418 24.2188 0.884766 18.9618 0.884766 12.5C0.884766 6.03824 6.1418 0.78125 12.6035 0.78125C19.0653 0.78125 24.3223 6.03824 24.3223 12.5C24.3223 18.9618 19.0653 24.2188 12.6035 24.2188Z" fill="#FF5555"/>
</g>
<defs>
<clipPath id="clip0">
<rect width="25" height="25" fill="white" transform="translate(0.103516)"/>
</clipPath>
</defs>
</svg>
